<?xml version="1.0" standalone="no"?>
<!DOCTYPE svg PUBLIC "-//W3C//DTD SVG 20010904//EN"
 "http://www.w3.org/TR/2001/REC-SVG-20010904/DTD/svg10.dtd">
<svg version="1.0" xmlns="http://www.w3.org/2000/svg"
 width="32.000000pt" height="48.000000pt" viewBox="0 0 32.000000 48.000000"
 preserveAspectRatio="xMidYMid meet">
<metadata>
Created by potrace 1.16, written by Peter Selinger 2001-2019
</metadata>
<g transform="translate(0.000000,48.000000) scale(0.100000,-0.100000)"
fill="#fff" stroke="none">
<path d="M70 473 c-36 -13 -70 -57 -70 -90 0 -32 1 -33 40 -33 22 0 40 5 40
10 0 6 9 19 20 30 39 39 130 16 130 -34 0 -37 -21 -52 -108 -81 -106 -36 -122
-54 -122 -144 0 -102 35 -131 158 -131 88 0 132 22 150 76 19 55 13 320 -8
352 -24 35 -71 52 -147 51 -37 0 -75 -3 -83 -6z m160 -308 c0 -67 -22 -95 -75
-95 -59 0 -93 51 -63 93 12 16 99 56 126 57 8 0 12 -17 12 -55z"/>
</g>
</svg>
