<?xml version="1.0" standalone="no"?>
<!DOCTYPE svg PUBLIC "-//W3C//DTD SVG 20010904//EN"
 "http://www.w3.org/TR/2001/REC-SVG-20010904/DTD/svg10.dtd">
<svg version="1.0" xmlns="http://www.w3.org/2000/svg"
 width="336.000000pt" height="304.000000pt" viewBox="0 0 336.000000 304.000000"
 preserveAspectRatio="xMidYMid meet">
<metadata>
Created by potrace 1.16, written by Peter Selinger 2001-2019
</metadata>
<g transform="translate(0.000000,304.000000) scale(0.100000,-0.100000)"
fill="rgb(110, 221, 184)" stroke="none">
<path d="M2604 3025 c-8 -19 3 -35 26 -35 19 0 30 17 23 38 -6 17 -42 15 -49
-3z"/>
<path d="M2380 2852 c0 -34 -50 -82 -92 -89 l-36 -5 9 42 c12 52 5 61 -20 28
-37 -46 -123 -96 -204 -118 -99 -26 -121 -41 -144 -96 -17 -43 -19 -44 -62
-44 -124 0 -211 -139 -162 -258 17 -41 1 -68 -30 -51 -21 11 -29 7 -67 -25
-30 -26 -52 -68 -52 -99 0 -13 -13 -36 -30 -52 -35 -34 -38 -64 -9 -91 20 -18
22 -18 51 -1 23 13 34 15 44 6 8 -6 12 -15 9 -19 -2 -4 -9 -63 -14 -131 -12
-148 -1 -310 24 -363 48 -100 165 -82 290 44 l59 60 33 -108 c27 -86 63 -255
63 -295 0 -4 -17 -7 -37 -5 -33 3 -38 0 -41 -19 -3 -17 5 -26 33 -37 33 -14
35 -17 24 -38 -7 -13 -22 -30 -33 -38 -158 -112 -401 -339 -442 -413 -26 -47
-29 -62 -29 -142 0 -78 3 -94 23 -122 29 -40 78 -56 160 -51 52 2 63 0 68 -14
3 -10 25 -29 48 -43 59 -34 141 -34 233 0 65 25 295 156 413 236 66 44 140
117 140 136 0 8 12 27 28 42 24 24 38 29 102 33 119 9 247 67 225 103 -7 12
-31 17 -88 20 -44 2 -112 13 -153 25 -103 28 -110 27 -133 -19 -34 -65 -69
-65 -46 -1 21 60 35 180 35 302 0 71 6 129 16 165 13 46 15 94 12 272 -3 202
-5 219 -27 264 -42 85 -142 163 -242 187 -43 11 -47 14 -53 48 -3 20 -6 54 -6
74 0 35 3 39 53 62 58 28 130 85 150 119 6 12 12 54 13 92 1 46 9 90 23 129
22 58 21 80 -1 58 -7 -7 -21 -12 -31 -12 -15 0 -18 5 -13 23 14 49 17 103 7
127 -9 23 -10 23 -10 4 -1 -33 -33 -67 -54 -58 -15 5 -17 12 -10 33 12 40 9
119 -5 133 -9 9 -12 8 -12 -10z m-209 -324 c61 -41 64 -46 78 -103 7 -33 15
-62 17 -64 2 -2 17 2 33 8 66 28 96 -38 45 -98 -17 -20 -35 -31 -52 -31 -22 0
-30 -8 -45 -45 -36 -86 -130 -159 -221 -171 -41 -6 -46 -4 -84 34 -24 24 -46
60 -57 91 -9 29 -15 54 -14 55 2 2 22 10 44 18 58 22 105 93 105 160 0 48 -17
96 -48 131 -18 21 -15 25 35 42 65 24 96 19 164 -27z m-301 -8 c0 -6 -8 -22
-17 -37 -17 -25 -17 -26 7 -18 14 3 -10 -14 -52 -39 -43 -26 -78 -51 -78 -56
0 -15 4 -13 72 30 34 21 63 38 65 37 1 -2 0 -13 -4 -25 -3 -13 -32 -41 -64
-63 -33 -22 -59 -44 -59 -49 0 -15 6 -13 60 26 l50 36 0 -61 c0 -55 -2 -61
-20 -61 -54 0 -123 64 -134 124 -9 50 22 119 66 146 34 21 108 28 108 10z m98
-50 c27 -40 29 -107 6 -152 -12 -24 -18 -28 -25 -17 -7 11 -9 9 -9 -7 0 -26
-15 -40 -53 -49 -27 -7 -27 -7 -27 46 0 30 7 66 14 82 8 15 11 27 7 27 -5 0
-6 11 -4 25 6 29 49 61 56 42 4 -9 6 -9 6 0 1 6 -3 15 -9 18 -5 3 -10 11 -10
16 0 19 25 3 48 -31z m-53 10 c-3 -5 -11 -10 -16 -10 -6 0 -7 5 -4 10 3 6 11
10 16 10 6 0 7 -4 4 -10z m-189 -231 c15 -17 16 -22 4 -29 -8 -5 -26 -7 -40
-4 -19 4 -18 2 8 -10 32 -15 33 -16 27 -68 -4 -29 -11 -66 -17 -81 -15 -39 8
-407 27 -425 8 -9 56 51 127 157 l63 95 6 -115 c3 -63 9 -124 13 -135 13 -43
-181 -203 -246 -204 -35 0 -70 25 -91 64 -18 35 -22 62 -25 188 -2 81 1 184 7
229 10 73 9 84 -6 101 -16 18 -15 20 20 49 20 16 46 44 58 61 21 29 22 31 4
44 -20 15 -14 57 12 87 20 22 26 21 49 -4z m-87 -12 c6 -8 8 -17 5 -20 -9 -8
-44 11 -44 23 0 15 26 12 39 -3z m-27 -24 c10 -9 18 -23 17 -32 0 -11 -2 -12
-6 -3 -2 7 -14 17 -26 23 -18 10 -17 6 6 -19 17 -18 24 -32 18 -36 -5 -4 -18
5 -27 19 -9 14 -20 25 -26 25 -5 0 0 -10 12 -22 11 -12 20 -28 20 -35 0 -17
-32 -17 -50 0 -12 10 -12 9 -1 -5 20 -26 46 -22 74 11 17 20 28 26 38 20 11
-6 -3 -25 -58 -81 -73 -73 -73 -73 -88 -50 -9 12 -22 22 -28 22 -7 0 -4 -5 6
-11 19 -11 24 -43 5 -37 -6 2 -16 12 -22 21 -8 13 -3 24 24 52 22 23 34 44 32
56 -3 19 43 99 56 99 3 0 14 -7 24 -17z m208 -10 c31 -4 37 -10 48 -45 38
-121 123 -173 218 -133 24 10 34 11 32 3 -2 -6 -22 -17 -43 -25 -86 -29 -134
-72 -207 -182 -79 -117 -128 -179 -128 -159 0 7 -7 69 -15 138 -17 145 -19
224 -5 249 5 10 12 52 14 92 3 41 6 76 6 78 0 2 10 0 23 -3 12 -4 38 -10 57
-13z m415 -240 c-50 -47 -68 -43 -88 19 l-16 51 43 38 c23 20 51 57 62 80 l19
44 8 -100 8 -100 -36 -32z m294 -89 c45 -32 53 -75 59 -284 6 -234 -4 -294
-54 -349 -37 -42 -209 -135 -314 -171 -47 -16 -81 -37 -128 -78 -34 -31 -77
-67 -94 -79 -33 -25 -31 -30 5 -11 12 6 33 13 46 14 18 2 10 -9 -40 -54 -199
-177 -278 -314 -266 -459 4 -61 4 -63 -20 -69 -41 -11 -123 2 -151 23 -38 28
-55 85 -48 160 7 80 34 132 109 211 85 87 234 214 241 203 8 -12 55 -20 62
-10 3 5 15 9 28 9 21 0 53 28 86 75 8 11 -4 3 -25 -17 -41 -38 -81 -58 -116
-58 -30 0 -22 17 15 30 39 13 64 38 98 102 28 51 26 58 -25 77 -15 6 -27 15
-27 21 0 14 34 12 105 -4 60 -15 60 -14 119 17 32 17 98 67 146 112 l88 80 -2
241 c-1 225 0 243 18 263 23 25 53 27 85 5z m26 -836 c-11 -115 -32 -207 -59
-253 -16 -27 -79 -87 -175 -166 -82 -68 -147 -126 -145 -128 4 -4 220 174 281
232 l41 40 30 -22 c36 -25 66 -84 57 -111 -11 -33 -117 -112 -307 -226 -249
-149 -347 -179 -444 -135 -94 43 -111 182 -40 326 42 85 143 198 270 302 44
37 85 71 91 75 6 6 4 12 -5 18 -20 13 -39 12 -20 0 13 -9 9 -15 -19 -41 -24
-22 -36 -27 -41 -19 -5 9 -9 9 -14 1 -4 -6 -12 -11 -18 -11 -6 0 -6 6 2 15 7
9 19 14 26 11 7 -3 22 10 34 29 39 64 61 74 144 68 80 -6 191 14 261 47 22 10
44 19 49 19 4 1 5 -32 1 -71z m-564 -16 c-13 -25 -31 -39 -66 -52 -34 -13 -28
-5 30 39 47 36 49 36 36 13z"/>
<path d="M2074 2500 c16 -5 38 -17 50 -27 12 -10 9 -6 -6 10 -16 15 -38 27
-51 26 -19 -1 -18 -2 7 -9z"/>
<path d="M2019 2483 c-13 -16 -12 -17 4 -4 9 7 17 15 17 17 0 8 -8 3 -21 -13z"/>
<path d="M2040 2361 c0 -9 30 -24 36 -18 2 1 -6 8 -16 15 -11 7 -20 8 -20 3z"/>
<path d="M1965 2200 c-4 -6 -4 -14 -1 -17 3 -4 6 -1 6 5 0 7 5 12 10 12 6 0
10 -16 10 -35 0 -34 -14 -48 -23 -22 -2 7 -3 6 -3 -3 1 -8 9 -16 19 -18 16 -3
18 2 15 39 -3 42 -19 61 -33 39z"/>
<path d="M1962 2420 c0 -14 2 -19 5 -12 2 6 2 18 0 25 -3 6 -5 1 -5 -13z"/>
<path d="M1898 2413 c-2 -5 -1 -24 3 -43 l6 -35 2 43 c1 39 -3 52 -11 35z"/>
<path d="M1952 2360 c0 -19 2 -27 5 -17 2 9 2 25 0 35 -3 9 -5 1 -5 -18z"/>
<path d="M1284 2724 c-12 -67 -1 -82 15 -19 13 52 14 75 3 75 -4 0 -12 -25
-18 -56z"/>
<path d="M1373 2716 c-26 -24 -45 -47 -41 -51 7 -7 98 68 106 87 9 20 -21 4
-65 -36z"/>
<path d="M302 2688 c-18 -18 -14 -46 9 -58 26 -14 49 3 49 35 0 32 -35 46 -58
23z"/>
<path d="M1408 2633 c-10 -2 -18 -9 -18 -15 0 -6 10 -8 23 -4 12 3 39 6 60 6
20 0 37 5 37 10 0 10 -69 12 -102 3z"/>
<path d="M987 2519 c-23 -14 -90 -147 -84 -169 7 -27 291 -400 302 -397 10 3
202 301 240 371 19 34 19 35 -10 108 -16 40 -36 78 -44 85 -20 16 -377 17
-404 2z m388 -8 c3 -5 -3 -12 -12 -14 -10 -2 -7 -3 7 -1 23 2 28 -4 49 -57 13
-33 21 -62 18 -65 -2 -2 -33 9 -68 26 -43 20 -66 37 -71 52 -6 22 -6 22 -7 -2
-1 -22 9 -29 74 -59 41 -18 75 -38 75 -44 0 -5 -37 -69 -82 -141 -123 -197
-148 -233 -148 -212 0 15 -3 16 -14 7 -11 -10 -38 20 -144 161 -72 96 -132
180 -134 189 -1 8 11 45 27 81 28 64 32 67 60 64 17 -2 22 -1 12 1 -9 2 -15 9
-12 14 4 5 86 9 185 9 99 0 181 -4 185 -9z"/>
<path d="M1118 2483 c39 -2 105 -2 145 0 39 1 7 3 -73 3 -80 0 -112 -2 -72 -3z"/>
<path d="M1071 2463 c-3 -39 9 -43 113 -41 l101 2 -99 5 c-87 5 -100 8 -107
26 -4 11 -8 15 -8 8z"/>
<path d="M1020 2405 c-14 -8 -20 -14 -15 -14 6 0 21 6 35 14 14 8 21 14 15 14
-5 0 -21 -6 -35 -14z"/>
<path d="M1091 2394 c0 -11 3 -14 6 -6 3 7 2 16 -1 19 -3 4 -6 -2 -5 -13z"/>
<path d="M1275 2370 c-4 -17 -5 -34 -2 -36 2 -3 7 10 11 27 3 18 4 34 2 36 -2
3 -7 -10 -11 -27z"/>
<path d="M950 2375 c-14 -8 -20 -14 -15 -14 6 0 21 6 35 14 14 8 21 14 15 14
-5 0 -21 -6 -35 -14z"/>
<path d="M1101 2354 c0 -11 3 -14 6 -6 3 7 2 16 -1 19 -3 4 -6 -2 -5 -13z"/>
<path d="M1111 2314 c0 -11 3 -14 6 -6 3 7 2 16 -1 19 -3 4 -6 -2 -5 -13z"/>
<path d="M1256 2284 c-4 -20 -5 -38 -3 -40 3 -3 8 11 11 32 4 20 5 38 3 40 -3
3 -8 -11 -11 -32z"/>
<path d="M1121 2280 c0 -8 8 -46 18 -85 11 -38 19 -63 20 -55 0 8 -8 47 -18
85 -11 39 -19 63 -20 55z"/>
<path d="M1242 2210 c0 -14 2 -19 5 -12 2 6 2 18 0 25 -3 6 -5 1 -5 -13z"/>
<path d="M1232 2160 c0 -14 2 -19 5 -12 2 6 2 18 0 25 -3 6 -5 1 -5 -13z"/>
<path d="M1161 2104 c0 -11 3 -14 6 -6 3 7 2 16 -1 19 -3 4 -6 -2 -5 -13z"/>
<path d="M1222 2100 c0 -14 2 -19 5 -12 2 6 2 18 0 25 -3 6 -5 1 -5 -13z"/>
<path d="M1171 2064 c0 -11 3 -14 6 -6 3 7 2 16 -1 19 -3 4 -6 -2 -5 -13z"/>
<path d="M1212 2045 c0 -16 2 -22 5 -12 2 9 2 23 0 30 -3 6 -5 -1 -5 -18z"/>
<path d="M1181 2024 c0 -11 3 -14 6 -6 3 7 2 16 -1 19 -3 4 -6 -2 -5 -13z"/>
<path d="M2873 1974 c-8 -22 10 -49 32 -49 10 0 22 7 28 16 15 24 1 49 -28 49
-15 0 -28 -7 -32 -16z"/>
<path d="M325 1700 c-22 -24 -13 -66 15 -75 54 -17 93 42 50 77 -28 23 -43 23
-65 -2z"/>
<path d="M1424 1525 c-7 -18 3 -35 22 -35 20 0 30 30 13 41 -20 12 -29 11 -35
-6z"/>
<path d="M3169 1384 c-15 -18 -2 -47 24 -52 22 -5 42 35 26 54 -15 18 -33 18
-50 -2z"/>
<path d="M1607 1084 c-4 -4 -7 -18 -7 -31 0 -21 4 -24 28 -21 21 2 27 8 27 28
0 18 -6 26 -20 28 -12 2 -24 0 -28 -4z"/>
<path d="M94 906 c-8 -21 3 -36 27 -36 15 0 20 6 17 22 -4 27 -35 37 -44 14z"/>
</g>
</svg>
